<svg width="603" height="565" viewBox="0 0 603 565" fill="none" xmlns="http://www.w3.org/2000/svg">
<path opacity="0.7" d="M465.606 79.3466C366.044 1.11406 184.921 2.37284 122.065 127.145C107.065 156.92 91.8422 187.143 67.8431 210.86C47.4555 231 24.4681 251.058 15.139 279.093C-5.57792 341.443 46.5967 388.595 88.8306 424.511C128.935 458.628 151.617 510.014 194.592 540.354C221.155 559.118 253.907 566.506 286.035 563.295C318.976 560.012 343.681 539.566 372.727 525.884C394.749 515.496 417.96 513.026 440.818 505.885C460.359 499.744 479.546 487.474 495.499 474.604C530.368 446.463 555.497 406.971 567.779 364.019C597.248 260.517 549.297 145.121 465.606 79.3466Z" fill="#D1C0FF"/>
<g opacity="0.3">
<path opacity="0.3" d="M565.97 199.373C586.052 179.291 586.052 146.732 565.97 126.65C545.888 106.568 513.329 106.568 493.247 126.65C473.165 146.732 473.165 179.291 493.247 199.373C513.329 219.455 545.888 219.455 565.97 199.373Z" stroke="black" stroke-miterlimit="10"/>
<path opacity="0.3" d="M562.166 195.569C580.147 177.588 580.147 148.435 562.166 130.454C544.185 112.473 515.032 112.473 497.051 130.454C479.07 148.435 479.07 177.588 497.051 195.569C515.032 213.55 544.185 213.55 562.166 195.569Z" stroke="black" stroke-miterlimit="10"/>
<path opacity="0.3" d="M537.888 174.338L529.603 163.008L501.83 188.51" stroke="black" stroke-miterlimit="10"/>
</g>
<g opacity="0.3">
<path opacity="0.3" d="M195.64 324.99H172.498V395.546H195.64V324.99Z" fill="white" stroke="black" stroke-miterlimit="10"/>
<path opacity="0.3" d="M237.966 290.569H130.16V379.75H237.966V290.569Z" fill="white" stroke="black" stroke-miterlimit="10"/>
<path opacity="0.3" d="M230.468 296.773H137.671V373.533H230.468V296.773Z" fill="white" stroke="black" stroke-miterlimit="10"/>
<path opacity="0.3" d="M418.472 392.717H63.1184V533.612H418.472V392.717Z" fill="white" stroke="black" stroke-miterlimit="10"/>
<path opacity="0.3" d="M63.0042 466.089H416.886" stroke="black" stroke-miterlimit="10"/>
<path opacity="0.3" d="M418.46 392.717H307.951V533.612H418.46V392.717Z" fill="white" stroke="black" stroke-miterlimit="10"/>
<path opacity="0.3" d="M425.349 392.717H56.229V406.267H425.349V392.717Z" fill="white" stroke="black" stroke-miterlimit="10"/>
<path opacity="0.3" d="M236.837 406.394L242.419 416.683H274.126L279.734 406.394H236.837Z" fill="white" stroke="black" stroke-miterlimit="10"/>
<path opacity="0.3" d="M236.837 465.657L242.419 475.947H274.126L279.734 465.657H236.837Z" fill="white" stroke="black" stroke-miterlimit="10"/>
<path opacity="0.3" d="M117.751 406.394L123.334 416.683H155.04L160.648 406.394H117.751Z" fill="white" stroke="black" stroke-miterlimit="10"/>
<path opacity="0.3" d="M117.751 465.657L123.334 475.947H155.04L160.648 465.657H117.751Z" fill="white" stroke="black" stroke-miterlimit="10"/>
</g>
<g opacity="0.3">
<path opacity="0.3" d="M541.593 386.474H552.06V374.637H541.593V386.474Z" fill="#263238" stroke="black" stroke-miterlimit="10"/>
<path opacity="0.3" d="M537.482 377.364H557.515V370.082H537.482V377.364Z" fill="#263238" stroke="black" stroke-miterlimit="10"/>
<path opacity="0.3" d="M524.731 503.048H569.81V382.833H524.731V503.048Z" fill="white" stroke="black" stroke-miterlimit="10"/>
<path opacity="0.3" d="M552.276 430.183C558.687 430.183 563.885 424.985 563.885 418.574C563.885 412.162 558.687 406.965 552.276 406.965C545.864 406.965 540.666 412.162 540.666 418.574C540.666 424.985 545.864 430.183 552.276 430.183Z" fill="#263238" stroke="black" stroke-miterlimit="10"/>
<path opacity="0.3" d="M457.613 533.65L478.282 507.704H537.939L558.454 533.65H457.613Z" fill="white" stroke="black" stroke-miterlimit="10"/>
<path opacity="0.3" d="M539.867 508.047H458.159C456.251 508.047 454.421 507.289 453.072 505.94C451.723 504.59 450.965 502.761 450.965 500.853V500.307H547.048V500.853C547.048 502.758 546.292 504.586 544.946 505.935C543.599 507.284 541.773 508.043 539.867 508.047Z" fill="white" stroke="black" stroke-miterlimit="10"/>
<path opacity="0.3" d="M487.39 345.534L505.493 357.33L507.855 353.706L489.753 341.909L487.39 345.534Z" fill="white" stroke="black" stroke-miterlimit="10"/>
<path opacity="0.3" d="M472.83 337.436L489.765 348.524L496.897 337.632L479.962 326.544L472.83 337.436Z" fill="#263238" stroke="black" stroke-width="1.00404" stroke-miterlimit="10"/>
<path opacity="0.3" d="M545.221 326.373H549.319V313.165H545.221V326.373Z" fill="#263238" stroke="black" stroke-miterlimit="10"/>
<path opacity="0.3" d="M543.394 351.406H551.59V325.447H543.394V351.406Z" fill="white" stroke="black" stroke-miterlimit="10"/>
<path opacity="0.3" d="M537.938 363.7H557.059V348.678H537.938V363.7Z" fill="white" stroke="black" stroke-miterlimit="10"/>
<path opacity="0.3" d="M507.032 341.484L528.816 359.894L577.181 364.157L576.077 376.59L517.727 371.439L498.011 356.734L507.032 341.484Z" fill="white" stroke="black" stroke-miterlimit="10"/>
</g>
<path d="M211.297 93.1119C216.797 93.1119 221.256 88.6527 221.256 83.1521C221.256 77.6515 216.797 73.1924 211.297 73.1924C205.796 73.1924 201.337 77.6515 201.337 83.1521C201.337 88.6527 205.796 93.1119 211.297 93.1119Z" fill="white" stroke="#263238" stroke-linecap="round" stroke-linejoin="round"/>
<path d="M295.91 31.5137C295.913 30.1575 295.513 28.8311 294.761 27.7025C294.009 26.5739 292.939 25.6938 291.687 25.1736C290.434 24.6535 289.056 24.5168 287.725 24.7807C286.395 25.0447 285.173 25.6975 284.214 26.6564C283.255 27.6153 282.603 28.8373 282.339 30.1675C282.075 31.4977 282.211 32.8763 282.732 34.1287C283.252 35.3811 284.132 36.451 285.261 37.2029C286.389 37.9548 287.716 38.3548 289.072 38.3523C290.884 38.3489 292.622 37.6273 293.904 36.3456C295.185 35.0638 295.907 33.3263 295.91 31.5137Z" fill="white" stroke="#263238" stroke-linecap="round" stroke-linejoin="round"/>
<path d="M215.027 16.5803C215.027 16.2115 214.917 15.8509 214.713 15.5442C214.508 15.2375 214.216 14.9984 213.876 14.8572C213.535 14.7161 213.16 14.6791 212.798 14.7511C212.436 14.8231 212.104 15.0007 211.843 15.2615C211.582 15.5224 211.404 15.8547 211.333 16.2165C211.261 16.5783 211.297 16.9533 211.439 17.2941C211.58 17.6349 211.819 17.9262 212.126 18.1311C212.432 18.336 212.793 18.4454 213.162 18.4454C213.656 18.4454 214.131 18.2489 214.481 17.8992C214.83 17.5494 215.027 17.075 215.027 16.5803Z" fill="white" stroke="#263238" stroke-linecap="round" stroke-linejoin="round"/>
<path d="M22.1502 5.3772C22.1527 4.5129 21.8986 3.66732 21.4199 2.94763C20.9413 2.22795 20.2598 1.66657 19.4618 1.33466C18.6638 1.00275 17.7851 0.915247 16.9373 1.08325C16.0895 1.25125 15.3107 1.66719 14.6995 2.27834C14.0884 2.8895 13.6724 3.66834 13.5044 4.51616C13.3364 5.36397 13.4239 6.24259 13.7558 7.04062C14.0877 7.83864 14.6491 8.52016 15.3688 8.99877C16.0885 9.47739 16.9341 9.73155 17.7984 9.72904C18.9525 9.72904 20.0595 9.27055 20.8756 8.45442C21.6917 7.63829 22.1502 6.53138 22.1502 5.3772Z" fill="white" stroke="#263238" stroke-linecap="round" stroke-linejoin="round"/>
<path d="M19.0417 141.629C21.4452 141.629 23.3936 139.681 23.3936 137.277C23.3936 134.874 21.4452 132.925 19.0417 132.925C16.6383 132.925 14.6899 134.874 14.6899 137.277C14.6899 139.681 16.6383 141.629 19.0417 141.629Z" fill="white" stroke="#263238" stroke-linecap="round" stroke-linejoin="round"/>
<path d="M213.783 228.742C219.284 228.742 223.743 224.283 223.743 218.782C223.743 213.282 219.284 208.823 213.783 208.823C208.283 208.823 203.824 213.282 203.824 218.782C203.824 224.283 208.283 228.742 213.783 228.742Z" fill="white" stroke="#263238" stroke-linecap="round" stroke-linejoin="round"/>
<path d="M20.9068 439.66C20.9093 438.796 20.6552 437.951 20.1766 437.231C19.6979 436.511 19.0164 435.95 18.2184 435.618C17.4204 435.286 16.5418 435.198 15.6939 435.366C14.8461 435.534 14.0673 435.95 13.4561 436.562C12.845 437.173 12.429 437.952 12.261 438.799C12.093 439.647 12.1805 440.526 12.5124 441.324C12.8444 442.122 13.4057 442.803 14.1254 443.282C14.8451 443.761 15.6907 444.015 16.555 444.012C17.7092 444.012 18.8161 443.554 19.6322 442.738C20.4483 441.922 20.9068 440.815 20.9068 439.66Z" fill="white" stroke="#263238" stroke-linecap="round" stroke-linejoin="round"/>
<path d="M106.565 467.332C113.602 465.728 118.006 458.723 116.402 451.686C114.799 444.649 107.794 440.245 100.757 441.849C93.72 443.453 89.3157 450.458 90.9196 457.494C92.5235 464.531 99.5283 468.936 106.565 467.332Z" fill="white" stroke="#263238" stroke-linecap="round" stroke-linejoin="round"/>
<path d="M211.297 414.146C214.043 414.146 216.27 411.919 216.27 409.172C216.27 406.425 214.043 404.199 211.297 404.199C208.55 404.199 206.323 406.425 206.323 409.172C206.323 411.919 208.55 414.146 211.297 414.146Z" fill="white" stroke="#263238" stroke-linecap="round" stroke-linejoin="round"/>
<path d="M10.9471 284.111C10.9446 283.496 10.7601 282.897 10.417 282.387C10.074 281.878 9.5876 281.481 9.01939 281.248C8.45118 281.015 7.82658 280.955 7.22443 281.076C6.62229 281.198 6.0696 281.495 5.63614 281.93C5.20269 282.365 4.90789 282.919 4.78898 283.522C4.67006 284.124 4.73235 284.749 4.96799 285.316C5.20363 285.883 5.60206 286.368 6.11296 286.709C6.62387 287.05 7.22435 287.232 7.8386 287.232C8.24788 287.232 8.65313 287.151 9.0311 286.994C9.40906 286.837 9.7523 286.607 10.0411 286.317C10.3299 286.027 10.5586 285.683 10.7141 285.304C10.8696 284.926 10.9487 284.52 10.9471 284.111Z" fill="white" stroke="#263238" stroke-linecap="round" stroke-linejoin="round"/>
<path d="M430.297 68.2188C430.297 66.9892 429.932 65.7872 429.249 64.7649C428.566 63.7425 427.595 62.9457 426.459 62.4751C425.323 62.0046 424.073 61.8815 422.867 62.1214C421.661 62.3612 420.554 62.9533 419.684 63.8228C418.815 64.6922 418.223 65.8 417.983 67.006C417.743 68.2119 417.866 69.4619 418.336 70.5979C418.807 71.7339 419.604 72.7049 420.626 73.388C421.649 74.0711 422.851 74.4357 424.08 74.4357C424.897 74.4357 425.705 74.2749 426.459 73.9625C427.214 73.6501 427.899 73.1921 428.476 72.6148C429.053 72.0375 429.511 71.3522 429.824 70.5979C430.136 69.8437 430.297 69.0352 430.297 68.2188Z" fill="white" stroke="#263238" stroke-linecap="round" stroke-linejoin="round"/>
<path d="M372.442 84.3955C375.532 84.3955 378.037 81.8904 378.037 78.8002C378.037 75.7101 375.532 73.205 372.442 73.205C369.352 73.205 366.846 75.7101 366.846 78.8002C366.846 81.8904 369.352 84.3955 372.442 84.3955Z" fill="white" stroke="#263238" stroke-linecap="round" stroke-linejoin="round"/>
<path d="M497.503 325.802C500.25 325.802 502.477 323.575 502.477 320.829C502.477 318.082 500.25 315.855 497.503 315.855C494.756 315.855 492.53 318.082 492.53 320.829C492.53 323.575 494.756 325.802 497.503 325.802Z" fill="white" stroke="#263238" stroke-linecap="round" stroke-linejoin="round"/>
<path d="M245.477 230.95L262.504 183.067C262.504 183.067 272.07 147.427 281.649 136.25C291.228 125.072 309.372 128.802 309.372 128.802C309.372 128.802 327.984 107.525 332.209 113.907C336.434 120.289 321.564 132.532 318.367 138.914C315.17 145.296 310.374 161.295 305.565 170.303C300.757 179.311 289.072 188.396 289.072 188.396L286.953 242.648L248.649 257.556L245.477 230.95Z" fill="white" stroke="#263238" stroke-linecap="round" stroke-linejoin="round"/>
<path d="M309.372 128.802C309.372 128.802 291.279 125.085 281.7 136.25C272.121 147.415 262.554 183.067 262.554 183.067L252.404 211.449C256.293 215.336 261.32 217.883 266.754 218.719C274.722 219.772 282.411 216.6 288.133 213.149L289.097 188.396C289.097 188.396 300.808 179.349 305.591 170.303C310.374 161.257 315.17 145.296 318.354 138.914C321.539 132.532 336.447 120.289 332.197 113.907C327.946 107.525 309.372 128.802 309.372 128.802Z" fill="#8764EB" stroke="#263238" stroke-linecap="round" stroke-linejoin="round"/>
<path d="M313.038 133.598H329.532V183.473C329.532 184.189 329.391 184.899 329.117 185.561C328.843 186.223 328.441 186.824 327.934 187.331C327.428 187.837 326.826 188.239 326.164 188.513C325.502 188.787 324.793 188.928 324.077 188.928H318.481C317.765 188.928 317.055 188.787 316.394 188.513C315.732 188.239 315.13 187.837 314.624 187.331C314.117 186.824 313.715 186.223 313.441 185.561C313.167 184.899 313.026 184.189 313.026 183.473V133.598H313.038Z" stroke="#263238" stroke-linecap="round" stroke-linejoin="round"/>
<path d="M321.285 184.653C320.569 184.653 319.859 184.512 319.198 184.238C318.536 183.963 317.934 183.561 317.428 183.055C316.921 182.548 316.519 181.947 316.245 181.285C315.971 180.623 315.83 179.914 315.83 179.197V139.003H326.741V179.197C326.741 179.914 326.6 180.623 326.326 181.285C326.052 181.947 325.65 182.548 325.143 183.055C324.636 183.561 324.035 183.963 323.373 184.238C322.711 184.512 322.002 184.653 321.285 184.653Z" fill="#8764EB"/>
<path d="M266.754 177.789C266.754 177.789 267.82 150.13 269.951 141.617C272.083 133.103 294.959 116.609 298.143 116.609C301.328 116.609 335.381 125.123 336.98 129.906C338.578 134.689 333.25 141.617 325.282 144.268C317.314 146.92 288.564 151.145 288.564 151.145C288.564 151.145 292.294 169.77 287.498 176.685" fill="#8764EB"/>
<path d="M266.754 177.789C266.754 177.789 267.82 150.13 269.951 141.617C272.083 133.103 294.959 116.609 298.143 116.609C301.328 116.609 335.381 125.123 336.98 129.906C338.578 134.689 333.25 141.617 325.282 144.268C317.314 146.92 288.564 151.145 288.564 151.145C288.564 151.145 292.294 169.77 287.498 176.685" stroke="#263238" stroke-linecap="round" stroke-linejoin="round"/>
<path d="M328.999 143.164C328.999 143.164 331.131 138.381 328.466 137.848C325.802 137.315 303.459 137.315 298.676 137.315C293.893 137.315 281.116 141.578 281.116 141.578" stroke="#263238" stroke-linecap="round" stroke-linejoin="round"/>
<path d="M334.848 136.25C333.511 134.026 331.444 132.335 328.999 131.466C325.282 130.401 303.459 129.335 296.012 129.335C288.564 129.335 280.051 132.532 280.051 132.532" stroke="#263238" stroke-linecap="round" stroke-linejoin="round"/>
<path d="M429.016 252.227C433.12 265.133 438.079 277.751 443.86 289.998C453.439 310.222 452.373 329.9 449.176 334.163C445.979 338.426 434.814 339.479 434.814 339.479C434.814 339.479 406.622 325.65 400.773 311.275C394.924 296.9 402.892 258.609 411.405 255.45C417.067 253.449 423.012 252.361 429.016 252.227Z" fill="#263238" stroke="#263238" stroke-linecap="round" stroke-linejoin="round"/>
<path d="M343.362 294.261L321.019 297.978C321.019 297.978 313.571 288.399 306.124 287.828C298.676 287.257 284.847 286.762 284.847 286.762L287.498 238.347C287.498 238.347 258.241 246.378 256.084 247.444C253.927 248.509 245.934 227.753 245.934 227.753C245.934 227.753 205.498 335.749 203.367 344.795C201.235 353.842 206.031 365.007 213.517 373.52C221.003 382.033 249.194 382.059 251.326 382.059C253.457 382.059 266.221 386.855 272.603 387.388C278.985 387.921 295.441 382.059 295.441 382.059C295.441 382.059 274.164 507.666 271.512 517.194C268.86 526.723 267.249 533.688 267.249 533.688H504.507C504.507 533.688 494.928 480.489 489.079 457.081C483.23 433.672 472.585 375.69 472.052 368.775C471.519 361.86 470.986 343.768 464.604 336.853C458.222 329.938 430.081 316.604 428.483 316.083C426.884 315.563 371.541 291.596 371.541 291.596L343.362 294.261Z" fill="white" stroke="#263238" stroke-linecap="round" stroke-linejoin="round"/>
<path d="M283.451 356.506L283.248 366.605" stroke="#263238" stroke-linecap="round" stroke-linejoin="round"/>
<path d="M284.847 288.399L283.552 351.71" stroke="#263238" stroke-linecap="round" stroke-linejoin="round"/>
<path d="M284.847 302.774L292.827 360.756" stroke="#263238" stroke-linecap="round" stroke-linejoin="round"/>
<path d="M243.257 317.454L242.369 327.084" stroke="#263238" stroke-linecap="round" stroke-linejoin="round"/>
<path d="M248.294 262.618L244.018 309.245" stroke="#263238" stroke-linecap="round" stroke-linejoin="round"/>
<path d="M329.279 312.709L332.73 318.202" stroke="#263238" stroke-linecap="round" stroke-linejoin="round"/>
<path d="M321.019 299.577L327.705 310.222" stroke="#263238" stroke-linecap="round" stroke-linejoin="round"/>
<path d="M412.636 478.281C410.923 493.507 410.923 526.202 410.923 526.202" stroke="#263238" stroke-linecap="round" stroke-linejoin="round"/>
<path d="M413.511 394.746C413.74 397.373 413.955 400.05 414.12 402.778C415.478 424.575 415.288 452.259 413.879 468.093" stroke="#263238" stroke-linecap="round" stroke-linejoin="round"/>
<path d="M407.738 355.415C407.738 355.415 410.898 369.828 412.94 388.936" stroke="#263238" stroke-linecap="round" stroke-linejoin="round"/>
<path d="M463.044 468.817C461.496 494.978 462.536 533.65 462.536 533.65" stroke="#263238" stroke-linecap="round" stroke-linejoin="round"/>
<path d="M455.089 383.632C455.089 383.632 468.385 431.515 464.655 452.792C464.173 455.583 463.767 459.034 463.45 462.942" stroke="#263238" stroke-linecap="round" stroke-linejoin="round"/>
<path d="M299.818 446.347C300.74 443.824 301.511 441.248 302.127 438.633" stroke="#263238" stroke-linecap="round" stroke-linejoin="round"/>
<path d="M275.496 497.237C275.496 497.237 289.922 471.405 297.801 451.701" stroke="#263238" stroke-linecap="round" stroke-linejoin="round"/>
<path d="M367.303 271.385C367.303 271.385 361.454 263.937 359.323 268.188C357.191 272.438 338.046 288.399 338.046 288.399C338.046 288.399 335.914 305.426 338.578 315.043C341.243 324.66 342.829 331.537 343.895 333.136C344.96 334.734 357.724 316.642 364.106 316.109C370.488 315.576 374.751 317.175 379.534 320.359C384.317 323.544 402.854 352.674 402.854 352.674C402.854 352.674 415.186 334.722 415.719 331.537C416.252 328.352 419.436 325.688 421.035 324.622C422.634 323.556 440.714 330.471 443.873 332.07C447.032 333.668 449.722 345.366 450.787 341.116C451.853 336.866 435.892 320.892 430.576 312.912C425.26 304.931 417.28 288.437 409.299 284.187C401.319 279.937 367.303 271.385 367.303 271.385Z" fill="white" stroke="#263238" stroke-linecap="round" stroke-linejoin="round"/>
<path d="M366.237 241.595L362.52 279.898C362.52 279.898 386.982 321.387 390.179 324.584C393.376 327.781 400.824 353.309 405.074 347.422C409.324 341.535 412.522 319.75 412.522 311.237C412.522 302.723 414.12 262.834 414.12 262.834C414.12 262.834 391.283 260.702 383.264 255.919C375.246 251.136 366.237 241.595 366.237 241.595Z" fill="white" stroke="#263238" stroke-linecap="round" stroke-linejoin="round"/>
<path d="M366.237 241.595L365.793 246.213L412.737 300.097C413.181 285.291 414.082 262.872 414.082 262.872C414.082 262.872 391.245 260.74 383.226 255.957C375.208 251.174 366.237 241.595 366.237 241.595Z" fill="#263238" stroke="#263238" stroke-linecap="round" stroke-linejoin="round"/>
<path d="M415.186 369.803L421.035 406.508L463.056 411.291L455.609 377.25L415.186 369.803Z" fill="white" stroke="#263238" stroke-linecap="round" stroke-linejoin="round"/>
<path d="M409.337 148.493C409.337 148.493 404.008 135.197 383.797 145.296C363.586 155.395 356.658 187.33 356.658 194.777C356.658 202.225 354.007 210.777 358.853 210.777C363.7 210.777 369.498 196.934 373.216 191.618C376.933 186.302 406.736 172.473 413.118 173.006C419.5 173.538 441.843 201.73 441.843 201.73L442.376 218.757C442.376 218.757 461.001 210.776 464.718 196.414C468.436 182.052 449.29 154.913 432.797 146.4C416.303 137.886 409.337 148.493 409.337 148.493Z" fill="#263238" stroke="#263238" stroke-linecap="round" stroke-linejoin="round"/>
<path d="M364.639 201.159C364.639 201.159 362.52 189.449 356.658 194.816C350.797 200.182 353.474 221.459 357.191 223.54C360.909 225.621 363.535 216.093 363.535 216.093L364.639 201.159Z" fill="white" stroke="#263238" stroke-linecap="round" stroke-linejoin="round"/>
<path d="M363.586 189.449C363.586 189.449 362.52 224.568 362.52 233.614C362.52 242.66 364.106 248.509 378.481 259.142C392.856 269.774 402.41 272.451 411.989 268.721C421.568 264.991 434.826 255.957 436.996 249.042C439.166 242.128 445.509 202.758 447.146 197.962C448.783 193.166 416.785 167.639 414.679 165.52C413.394 164.247 411.688 163.489 409.883 163.388C409.883 163.388 401.382 168.704 386.487 176.152C371.592 183.6 367.861 186.302 367.861 186.302C367.861 186.302 364.639 201.159 363.586 189.449Z" fill="white" stroke="#263238" stroke-linecap="round" stroke-linejoin="round"/>
<path d="M394.378 193.153C394.125 195.691 392.856 197.543 391.536 197.416C390.217 197.29 389.354 195.158 389.608 192.671C389.862 190.185 391.13 188.281 392.45 188.408C393.769 188.535 394.67 190.667 394.378 193.153Z" fill="#263238"/>
<path d="M429.016 199.561C428.762 202.098 427.493 203.951 426.186 203.824C424.879 203.697 424.004 201.565 424.258 199.079C424.511 196.592 425.768 194.689 427.087 194.828C428.407 194.968 429.269 197.074 429.016 199.561Z" fill="#263238"/>
<path d="M382.731 183.6C385.216 181.545 388.217 180.211 391.407 179.744C394.597 179.276 397.854 179.693 400.824 180.948" stroke="#263238" stroke-linecap="round" stroke-linejoin="round"/>
<path d="M441.246 196.896C435.397 187.863 423.7 189.449 423.7 189.449C423.7 189.449 419.969 195.792 419.436 200.094" stroke="#263238" stroke-linecap="round" stroke-linejoin="round"/>
<path d="M413.055 200.094C402.524 196.287 369.6 204.065 363.116 205.663C362.824 216.143 362.52 228.704 362.52 233.576C362.52 242.61 364.106 248.471 378.481 259.104C392.856 269.736 402.41 272.413 411.989 268.683C421.568 264.952 434.826 255.919 436.996 249.004C438.163 245.198 440.625 231.597 442.858 219.315C436.489 214.329 421.987 203.342 413.055 200.094Z" fill="white" stroke="#263238" stroke-linecap="round" stroke-linejoin="round"/>
<path d="M367.303 214.456C367.303 214.456 385.929 209.673 401.89 210.738" stroke="#263238" stroke-linecap="round" stroke-linejoin="round"/>
<path d="M384.343 227.917L392.31 227.753" stroke="#263238" stroke-linecap="round" stroke-linejoin="round"/>
<path d="M365.705 228.285L379.559 228.019" stroke="#263238" stroke-linecap="round" stroke-linejoin="round"/>
<path d="M436.463 238.93L425.285 235.733" stroke="#263238" stroke-linecap="round" stroke-linejoin="round"/>
<path d="M430.614 216.587L439.66 220.838" stroke="#263238" stroke-linecap="round" stroke-linejoin="round"/>
<path d="M366.237 239.463C366.237 239.463 376.882 243.181 382.731 243.181" stroke="#263238" stroke-linecap="round" stroke-linejoin="round"/>
<path d="M442.858 219.353C442.858 219.353 448.694 212.857 448.694 220.838C448.694 228.818 439.128 237.332 439.128 237.332L442.858 219.353Z" fill="white" stroke="#263238" stroke-linecap="round" stroke-linejoin="round"/>
<path d="M136.821 294.438C136.417 294.436 136.016 294.359 135.641 294.21L69.2085 267.744C68.4261 267.432 67.7995 266.823 67.4664 266.05C67.1332 265.277 67.121 264.403 67.4322 263.62C67.7435 262.838 68.3528 262.211 69.1261 261.878C69.8994 261.545 70.7733 261.533 71.5557 261.844L137.975 288.323C138.658 288.597 139.224 289.1 139.577 289.745C139.93 290.391 140.047 291.139 139.909 291.861C139.771 292.584 139.386 293.236 138.821 293.706C138.255 294.176 137.543 294.435 136.808 294.438H136.821Z" fill="white" stroke="#263238" stroke-linecap="round" stroke-linejoin="round"/>
<path d="M71.5557 261.844C70.7733 261.533 69.8994 261.545 69.1261 261.878C68.3528 262.211 67.7435 262.838 67.4322 263.62C67.121 264.403 67.1332 265.277 67.4664 266.05C67.7995 266.823 68.4261 267.432 69.2085 267.744L96.2203 278.503C96.6474 277.404 97.2909 276.402 98.1125 275.556C98.9342 274.711 99.9173 274.039 101.004 273.58L71.5557 261.844Z" fill="white" stroke="#263238" stroke-linecap="round" stroke-linejoin="round"/>
<path d="M166.192 58.2083C170.071 52.4474 171.701 45.4633 170.773 38.5806C167.489 33.8006 163.382 29.6421 158.643 26.299C159.62 27.0095 158.516 37.4768 158.516 38.9866C158.516 40.7375 157.248 50.6084 158.643 51.6742C161.345 53.6284 163.871 55.8148 166.192 58.2083Z" fill="#263238" stroke="#263238" stroke-linecap="round" stroke-linejoin="round"/>
<path d="M167.651 243.016C161.46 230.391 146.083 221.65 134.816 214.291C118.804 203.849 102.145 194.409 86.3621 183.625C78.1913 178.043 66.6075 170.937 60.7712 161.612C60.7712 161.612 57.2314 173.932 58.5382 180.453C58.7539 181.532 58.995 182.635 59.236 183.701C60.2157 185.731 61.4431 187.632 62.8901 189.36C73.4715 202.25 89.2802 211.221 103.224 219.937C119.337 229.998 136.034 239.425 151.094 251.047C155.515 254.289 159.595 257.97 163.274 262.034C165.175 260.013 166.739 257.7 167.905 255.183C168.378 253.973 168.764 252.731 169.06 251.466C169.161 251.136 169.25 250.869 169.339 250.654C169.428 250.438 169.339 249.994 169.339 249.677C169.241 247.364 168.667 245.096 167.651 243.016Z" fill="#263238" stroke="#263238" stroke-linecap="round" stroke-linejoin="round"/>
<path d="M163.287 258.342H163.008L85.512 251.605C85.0955 251.569 84.6901 251.452 84.319 251.259C83.9478 251.067 83.6183 250.803 83.349 250.483C83.0798 250.163 82.8763 249.794 82.75 249.395C82.6237 248.997 82.5771 248.577 82.6129 248.16C82.6487 247.744 82.7662 247.339 82.9587 246.967C83.1512 246.596 83.415 246.267 83.7348 245.997C84.0547 245.728 84.4244 245.525 84.823 245.398C85.2215 245.272 85.641 245.226 86.0576 245.261L163.553 252.011C164.395 252.046 165.187 252.415 165.757 253.034C166.327 253.654 166.627 254.475 166.592 255.316C166.557 256.157 166.189 256.95 165.569 257.52C164.949 258.09 164.128 258.39 163.287 258.355V258.342Z" fill="white" stroke="#263238" stroke-linecap="round" stroke-linejoin="round"/>
<path d="M86.0703 245.261C85.229 245.189 84.3935 245.454 83.7475 245.997C83.1015 246.541 82.6979 247.319 82.6256 248.16C82.5533 249.002 82.818 249.837 83.3617 250.483C83.9054 251.129 84.6835 251.533 85.5247 251.605L119.553 254.561C119.646 252.409 120.136 250.293 120.999 248.319L86.0703 245.261Z" fill="white" stroke="#263238" stroke-linecap="round" stroke-linejoin="round"/>
<path d="M144.509 237.167C144.23 237.166 143.953 237.128 143.685 237.053L118.652 230.315C117.839 230.097 117.147 229.564 116.727 228.835C116.307 228.106 116.194 227.239 116.413 226.427C116.631 225.614 117.164 224.922 117.893 224.502C118.622 224.082 119.489 223.969 120.301 224.187L145.334 230.924C146.084 231.119 146.736 231.58 147.169 232.222C147.602 232.864 147.784 233.643 147.683 234.41C147.582 235.178 147.203 235.882 146.618 236.39C146.034 236.897 145.284 237.174 144.509 237.167Z" fill="white" stroke="#263238" stroke-linecap="round" stroke-linejoin="round"/>
<path d="M122.369 220.8C121.9 220.799 121.437 220.695 121.012 220.495L103.681 212.312C102.92 211.952 102.334 211.304 102.051 210.512C101.768 209.72 101.811 208.847 102.171 208.087C102.531 207.326 103.178 206.74 103.971 206.457C104.763 206.174 105.635 206.217 106.396 206.577L123.727 214.76C124.378 215.068 124.906 215.589 125.222 216.237C125.538 216.884 125.624 217.62 125.466 218.323C125.308 219.027 124.915 219.655 124.352 220.105C123.789 220.555 123.09 220.8 122.369 220.8Z" fill="white" stroke="#263238" stroke-linecap="round" stroke-linejoin="round"/>
<path d="M162.12 385.37C162.12 385.37 166.649 378.95 166.649 373.482C166.643 373.414 166.643 373.347 166.649 373.279C163.477 356.975 150.384 345.531 136.681 336.206C118.525 323.848 98.2504 314.853 80.437 301.949C74.0932 297.382 67.5083 292.028 63.8163 284.999C63.6894 284.783 63.5752 284.555 63.461 284.326C62.7922 282.871 62.2283 281.37 61.7736 279.835C61.5325 279.086 61.5706 278.249 61.3422 277.513C61.228 277.183 61.1392 278.782 61.0631 281.18C60.9869 283.578 60.9616 286.547 60.9489 289.376C60.7966 294.451 60.5936 299.628 61.5959 304.449C63.0423 311.414 68.092 317.073 73.2812 321.666C89.6609 336.168 110.633 345.087 129.107 356.582C140.208 363.586 154.583 373.013 162.12 385.37Z" fill="#263238" stroke="#263238" stroke-linecap="round" stroke-linejoin="round"/>
<path d="M105.52 331.499H105.279L86.5016 330.04C86.0851 330.007 85.679 329.893 85.3066 329.704C84.9342 329.514 84.6028 329.253 84.3312 328.936C83.7828 328.295 83.5115 327.462 83.5772 326.62C83.6428 325.779 84.0399 324.998 84.6811 324.45C85.3224 323.902 86.1552 323.63 86.9965 323.696L105.761 325.142C106.178 325.158 106.587 325.256 106.966 325.43C107.345 325.604 107.686 325.851 107.969 326.157C108.252 326.462 108.473 326.821 108.617 327.212C108.762 327.603 108.829 328.018 108.813 328.435C108.797 328.851 108.699 329.261 108.525 329.639C108.351 330.018 108.104 330.359 107.799 330.642C107.493 330.926 107.134 331.146 106.743 331.291C106.352 331.436 105.937 331.502 105.52 331.486V331.499Z" fill="white" stroke="#263238" stroke-linecap="round" stroke-linejoin="round"/>
<path d="M95.421 309.841H95.1165L69.1324 307.43C68.2911 307.353 67.5151 306.945 66.975 306.295C66.4348 305.646 66.1749 304.808 66.2523 303.967C66.3297 303.126 66.7381 302.349 67.3877 301.809C68.0372 301.269 68.8748 301.009 69.716 301.087L95.7002 303.497C96.5414 303.534 97.3335 303.904 97.9022 304.525C98.4708 305.146 98.7695 305.968 98.7325 306.809C98.6955 307.65 98.3258 308.442 97.7048 309.011C97.0838 309.579 96.2623 309.878 95.421 309.841Z" fill="white" stroke="#263238" stroke-linecap="round" stroke-linejoin="round"/>
<path d="M170.252 175.327C170.086 172.945 169.388 170.63 168.21 168.552C164.556 161.853 158.529 156.309 152.985 151.208C145.093 143.938 136.694 137.252 128.244 130.629C110.951 117.104 92.9089 104.391 76.4404 89.8511C72.4819 86.4382 67.9651 82.6319 64.7171 78.2039C64.7171 78.2039 61.1392 92.1603 64.6155 102.615C64.7932 103.135 64.9454 103.63 65.085 104.125C66.8346 106.141 68.6895 108.064 70.6422 109.885C76.7375 115.707 83.1277 121.212 89.7877 126.379C106.611 139.751 124.044 152.325 140.652 165.977C147.859 171.914 156.258 178.296 162.551 185.922C162.754 185.782 162.944 185.63 163.135 185.477C165.21 183.959 167.022 182.112 168.501 180.009C169.015 179.118 169.468 178.194 169.859 177.243C169.993 176.948 170.15 176.664 170.329 176.393L170.252 175.327Z" fill="#263238" stroke="#263238" stroke-linecap="round" stroke-linejoin="round"/>
<path d="M61.7228 154.85C60.9999 154.842 60.3011 154.588 59.7423 154.13C59.1835 153.671 58.7981 153.035 58.6501 152.327C58.502 151.62 58.6002 150.883 58.9283 150.239C59.2563 149.594 59.7947 149.081 60.454 148.785L109.073 127.127C109.458 126.926 109.881 126.807 110.315 126.776C110.748 126.745 111.183 126.804 111.593 126.949C112.003 127.093 112.379 127.32 112.698 127.616C113.016 127.912 113.27 128.27 113.445 128.668C113.619 129.067 113.709 129.496 113.711 129.931C113.712 130.366 113.624 130.796 113.452 131.195C113.28 131.594 113.028 131.954 112.711 132.252C112.394 132.549 112.019 132.779 111.61 132.925L63.0169 154.583C62.6073 154.756 62.1675 154.847 61.7228 154.85Z" fill="white" stroke="#263238" stroke-linecap="round" stroke-linejoin="round"/>
<path d="M86.8315 137.024L60.4287 148.785C59.7693 149.081 59.231 149.594 58.9029 150.239C58.5748 150.883 58.4767 151.62 58.6247 152.327C58.7728 153.035 59.1581 153.671 59.7169 154.13C60.2757 154.588 60.9745 154.842 61.6974 154.85C62.1336 154.844 62.5645 154.753 62.9662 154.583L91.1453 142.035L86.8315 137.024Z" fill="white" stroke="#263238" stroke-linecap="round" stroke-linejoin="round"/>
<path d="M159.912 200.094H159.76L86.6031 196.731C85.7619 196.693 84.9705 196.321 84.403 195.699C83.8355 195.077 83.5385 194.255 83.5772 193.414C83.6159 192.572 83.9871 191.781 84.6094 191.213C85.2316 190.646 86.0537 190.349 86.895 190.388L160.052 193.762C160.893 193.781 161.692 194.133 162.274 194.741C162.856 195.349 163.172 196.163 163.154 197.004C163.135 197.845 162.783 198.645 162.175 199.227C161.567 199.808 160.753 200.125 159.912 200.106V200.094Z" fill="white" stroke="#263238" stroke-linecap="round" stroke-linejoin="round"/>
<path d="M83.5327 193.407C83.5123 193.824 83.5742 194.24 83.7149 194.633C83.8557 195.026 84.0725 195.387 84.353 195.696C84.6335 196.004 84.9721 196.255 85.3495 196.433C85.7269 196.61 86.1357 196.712 86.5524 196.731L122.217 198.368C122.715 196.293 122.874 194.15 122.687 192.024L86.8442 190.375C86.4276 190.356 86.0113 190.42 85.6193 190.562C85.2273 190.704 84.8672 190.923 84.5596 191.204C84.252 191.486 84.003 191.825 83.8268 192.203C83.6506 192.581 83.5507 192.991 83.5327 193.407Z" fill="white" stroke="#263238" stroke-linecap="round" stroke-linejoin="round"/>
<path d="M170.329 176.342C170.15 176.613 169.993 176.897 169.859 177.192C169.468 178.143 169.015 179.067 168.501 179.958C167.022 182.061 165.21 183.908 163.135 185.427C162.944 185.579 162.754 185.731 162.551 185.871C156.956 190.21 150.485 193.483 144.217 196.719C127.28 205.46 109.834 213.39 94.1523 224.34C79.054 234.883 64.5902 249.118 61.7228 268.137C61.431 270.104 61.3422 268.137 61.2534 270.154L60.9108 274.214C60.9108 274.214 59.8831 292.345 60.5682 300.211C61.0093 304.991 62.6597 309.58 65.3641 313.546C65.3641 313.546 64.679 311.148 63.3087 303.967C61.9385 296.786 63.8289 285.012 63.8289 285.012C64.4242 283.31 65.1103 281.641 65.8843 280.013C74.7656 261.425 93.3783 249.144 110.748 239.412C126.988 230.265 145.004 223.489 160.331 212.87C164.543 209.964 169.326 206.336 170.189 200.956C170.278 200.398 170.354 199.827 170.43 199.256C171.331 191.973 170.874 183.587 170.329 176.342Z" fill="#8764EB" stroke="#263238" stroke-linecap="round" stroke-linejoin="round"/>
<path d="M61.2407 355.085C60.3994 355.102 59.586 354.784 58.9792 354.201C58.3725 353.618 58.0222 352.818 58.0053 351.977C57.9885 351.135 58.3066 350.322 58.8895 349.715C59.4725 349.108 60.2726 348.758 61.1138 348.741L134.702 345.848C135.118 345.832 135.534 345.897 135.925 346.041C136.316 346.185 136.675 346.405 136.982 346.688C137.288 346.971 137.536 347.311 137.711 347.689C137.885 348.068 137.984 348.477 138.001 348.893C138.017 349.31 137.952 349.726 137.808 350.117C137.664 350.508 137.444 350.867 137.161 351.173C136.878 351.48 136.538 351.727 136.16 351.902C135.781 352.077 135.372 352.176 134.956 352.192L61.3675 355.085H61.2407Z" fill="white" stroke="#263238" stroke-linecap="round" stroke-linejoin="round"/>
<path d="M97.7936 347.307L61.1138 348.741C60.2726 348.758 59.4725 349.108 58.8895 349.715C58.3066 350.322 57.9885 351.135 58.0053 351.977C58.0222 352.818 58.3725 353.618 58.9792 354.201C59.586 354.784 60.3994 355.102 61.2407 355.085H61.3675L100.407 353.55C100.204 351.249 99.2903 349.067 97.7936 347.307Z" fill="white" stroke="#263238" stroke-linecap="round" stroke-linejoin="round"/>
<path d="M169.339 250.59C169.25 250.806 169.161 251.072 169.06 251.402C168.764 252.667 168.378 253.909 167.905 255.12C166.744 257.659 165.181 259.994 163.274 262.034C156.398 269.571 145.372 274.633 137.15 278.896C121.177 287.194 104.632 294.489 89.4452 304.271C75.0448 313.508 59.7435 326.208 57.5866 344.326C56.6731 351.939 57.1806 359.982 57.2314 367.671C57.1616 369.809 57.2337 371.95 57.4471 374.078C58.1545 368.616 59.3174 363.221 60.9235 357.952C65.3768 348.754 73.4461 341.065 81.4266 335.115C95.5606 324.571 111.712 317.01 127.432 309.181C139.84 303.002 154.38 296.874 163.871 286.407C167.099 283.075 169.022 278.694 169.288 274.062C169.288 273.605 169.288 273.161 169.288 272.705C169.698 265.339 169.715 257.957 169.339 250.59Z" fill="#8764EB" stroke="#263238" stroke-linecap="round" stroke-linejoin="round"/>
<path d="M57.9926 376.489C61.4944 387.667 71.6064 395.52 81.4647 400.913C80.7161 400.507 81.5916 389.494 81.5916 388.225C81.5916 386.956 82.67 376.197 81.4647 375.537C74.2454 371.617 65.7701 365.641 60.9235 357.952C59.3201 363.205 58.1573 368.582 57.4471 374.028C57.556 374.863 57.7386 375.686 57.9926 376.489Z" fill="#263238" stroke="#263238" stroke-linecap="round" stroke-linejoin="round"/>
<path d="M79.5996 110.9L93.2514 112.169C93.2737 110.023 93.5809 107.89 94.1649 105.825L80.2086 104.556C79.7921 104.518 79.372 104.562 78.9726 104.686C78.5731 104.81 78.2019 105.011 77.8803 105.279C77.5586 105.546 77.2928 105.874 77.098 106.244C76.9032 106.615 76.7832 107.02 76.7449 107.436C76.7066 107.853 76.7507 108.273 76.8747 108.672C76.9987 109.072 77.2001 109.443 77.4676 109.764C77.735 110.086 78.0632 110.352 78.4333 110.547C78.8035 110.742 79.2084 110.861 79.625 110.9H79.5996Z" fill="white" stroke="#263238" stroke-linecap="round" stroke-linejoin="round"/>
<path d="M161.358 82.6319H160.927L63.7401 70.604C63.3236 70.5532 62.9211 70.4209 62.5558 70.2145C62.1904 70.0082 61.8692 69.7319 61.6106 69.4014C61.352 69.0709 61.161 68.6928 61.0486 68.2885C60.9361 67.8842 60.9044 67.4617 60.9552 67.0452C61.006 66.6286 61.1384 66.2262 61.3447 65.8608C61.5511 65.4954 61.8274 65.1743 62.1579 64.9157C62.4883 64.6571 62.8665 64.4661 63.2708 64.3536C63.6751 64.2412 64.0975 64.2094 64.5141 64.2603L161.739 76.2881C162.156 76.3131 162.563 76.4199 162.938 76.6024C163.314 76.7849 163.649 77.0395 163.926 77.3517C164.203 77.6639 164.416 78.0276 164.552 78.422C164.688 78.8164 164.746 79.2338 164.721 79.6503C164.696 80.0668 164.589 80.4744 164.406 80.8496C164.224 81.2249 163.969 81.5606 163.657 81.8374C163.345 82.1143 162.981 82.327 162.587 82.4633C162.192 82.5996 161.775 82.6569 161.358 82.6319Z" fill="white" stroke="#263238" stroke-linecap="round" stroke-linejoin="round"/>
<path d="M161.739 76.2881L117.104 70.7563C116.717 72.8994 115.993 74.9676 114.96 76.8845L160.927 82.6319H161.32C161.737 82.6569 162.154 82.5996 162.549 82.4633C162.943 82.327 163.307 82.1143 163.619 81.8375C163.931 81.5606 164.186 81.225 164.368 80.8497C164.551 80.4744 164.658 80.0669 164.683 79.6503C164.708 79.2338 164.65 78.8164 164.514 78.422C164.378 78.0276 164.165 77.6639 163.888 77.3517C163.611 77.0395 163.276 76.7849 162.9 76.6024C162.525 76.4199 162.118 76.3131 161.701 76.2881H161.739Z" fill="white" stroke="#263238" stroke-linecap="round" stroke-linejoin="round"/>
<path d="M70.3757 53.2982C69.5345 53.3318 68.7144 53.0299 68.0957 52.4589C67.4771 51.8878 67.1106 51.0944 67.077 50.2532C67.0433 49.4119 67.3452 48.5918 67.9163 47.9731C68.4873 47.3545 69.2808 46.988 70.122 46.9544L164.01 39.253C164.851 39.184 165.686 39.4521 166.329 39.9981C166.973 40.5442 167.373 41.3236 167.442 42.1648C167.511 43.0061 167.243 43.8403 166.697 44.4839C166.151 45.1275 165.372 45.5278 164.53 45.5968L70.6422 53.2982H70.3757Z" fill="white" stroke="#263238" stroke-linecap="round" stroke-linejoin="round"/>
<path d="M163.985 39.2657L120.948 42.7929C121.604 43.679 122.069 44.6906 122.316 45.7647C122.562 46.8387 122.585 47.952 122.382 49.0352L164.505 45.5841C164.921 45.55 165.327 45.4341 165.699 45.2432C166.071 45.0522 166.401 44.7899 166.672 44.4712C166.942 44.1525 167.147 43.7837 167.275 43.3858C167.403 42.9879 167.451 42.5687 167.417 42.1522C167.383 41.7356 167.267 41.3299 167.076 40.9581C166.885 40.5863 166.622 40.2558 166.304 39.9855C165.985 39.7151 165.616 39.5101 165.218 39.3823C164.82 39.2544 164.401 39.2062 163.985 39.2404V39.2657Z" fill="white" stroke="#263238" stroke-linecap="round" stroke-linejoin="round"/>
<path d="M124.78 100.471C124.607 100.489 124.433 100.489 124.26 100.471L65.0596 90.8534C64.2285 90.7188 63.4848 90.2596 62.9923 89.5767C62.4998 88.8938 62.2987 88.0433 62.4333 87.2121C62.5679 86.381 63.0272 85.6373 63.71 85.1448C64.3929 84.6523 65.2435 84.4512 66.0746 84.5858L125.288 94.2156C126.129 94.2829 126.909 94.6817 127.456 95.3241C128.003 95.9665 128.273 96.8001 128.206 97.6413C128.138 98.4825 127.74 99.2626 127.097 99.8098C126.455 100.357 125.621 100.627 124.78 100.559V100.471Z" fill="white" stroke="#263238" stroke-linecap="round" stroke-linejoin="round"/>
<path d="M125.288 94.1649L93.5686 89.0137C92.7929 89.8134 92.1873 90.7619 91.7882 91.8021C91.3891 92.8422 91.205 93.9524 91.2468 95.0657L124.235 100.42C124.407 100.439 124.582 100.439 124.755 100.42C125.596 100.487 126.429 100.218 127.072 99.6703C127.714 99.123 128.113 98.343 128.18 97.5017C128.248 96.6605 127.978 95.827 127.431 95.1846C126.884 94.5421 126.103 94.1434 125.262 94.0761L125.288 94.1649Z" fill="white" stroke="#263238" stroke-linecap="round" stroke-linejoin="round"/>
<path d="M71.9744 65.085C73.6492 62.7007 75.5345 60.4715 77.6076 58.424C78.9652 57.1552 77.7345 47.6903 77.7345 45.7364C77.7345 42.7421 77.7345 39.7606 77.7345 36.7663C77.7345 36.1953 77.3412 33.3406 77.6457 33.0488C71.6269 38.9959 67.0295 46.226 64.1969 54.199C62.3213 59.6328 61.3067 65.3264 61.1899 71.0735C60.822 69.2846 60.7966 70.8578 61.0884 75.806C60.8727 82.708 59.8197 90.587 61.3295 97.2099C62.0413 99.7803 63.3448 102.148 65.1358 104.125C64.9962 103.63 64.8439 103.135 64.6663 102.615C61.1899 92.173 64.7678 78.2039 64.7678 78.2039C66.6095 73.5456 69.0307 69.1379 71.9744 65.085Z" fill="#8764EB" stroke="#263238" stroke-linecap="round" stroke-linejoin="round"/>
<path d="M63.6513 180.846C62.9057 180.846 62.1842 180.582 61.6135 180.102C61.0428 179.622 60.6595 178.957 60.5307 178.222C60.402 177.488 60.5362 176.731 60.9096 176.086C61.2831 175.441 61.872 174.947 62.5729 174.693L137.176 147.732C137.955 147.483 138.8 147.545 139.535 147.905C140.269 148.264 140.836 148.894 141.118 149.662C141.399 150.429 141.374 151.276 141.046 152.025C140.718 152.775 140.113 153.368 139.358 153.682L64.7551 180.631C64.4024 180.766 64.0289 180.839 63.6513 180.846Z" fill="white" stroke="#263238" stroke-linecap="round" stroke-linejoin="round"/>
<path d="M99.5318 161.295L62.5729 174.693C61.872 174.947 61.2831 175.441 60.9096 176.086C60.5362 176.731 60.402 177.488 60.5307 178.222C60.6595 178.957 61.0428 179.622 61.6135 180.102C62.1842 180.582 62.9057 180.846 63.6513 180.846C64.0189 180.844 64.3835 180.78 64.7298 180.656L101.917 167.22C101.107 166.469 100.473 165.549 100.061 164.525C99.6484 163.5 99.4677 162.397 99.5318 161.295Z" fill="white" stroke="#263238" stroke-linecap="round" stroke-linejoin="round"/>
<path d="M151.729 410.441C151.415 410.437 151.103 410.39 150.802 410.301L76.1993 387.679C75.3934 387.435 74.7174 386.881 74.3201 386.139C73.9227 385.397 73.8365 384.527 74.0805 383.721C74.3245 382.915 74.8786 382.239 75.6209 381.842C76.3633 381.444 77.2331 381.358 78.039 381.602L152.642 404.224C153.377 404.438 154.01 404.911 154.424 405.556C154.837 406.2 155.004 406.973 154.892 407.73C154.781 408.488 154.399 409.18 153.818 409.678C153.236 410.176 152.494 410.447 151.729 410.441Z" fill="white" stroke="#263238" stroke-linecap="round" stroke-linejoin="round"/>
<path d="M107.411 390.509L78.039 381.627C77.2331 381.383 76.3633 381.47 75.6209 381.867C74.8786 382.264 74.3245 382.94 74.0805 383.746C73.8365 384.552 73.9227 385.422 74.3201 386.164C74.7174 386.907 75.3934 387.461 76.1993 387.705L104.34 396.231C104.87 394.097 105.925 392.13 107.411 390.509Z" fill="white" stroke="#263238" stroke-linecap="round" stroke-linejoin="round"/>
<path d="M64.1208 377.707C63.2795 377.729 62.464 377.416 61.8537 376.836C61.2434 376.257 60.8883 375.459 60.8664 374.618C60.8445 373.776 61.1577 372.961 61.7371 372.351C62.3165 371.74 63.1146 371.385 63.9558 371.363L159.252 366.072C160.093 366.025 160.919 366.314 161.547 366.876C162.175 367.437 162.555 368.226 162.602 369.067C162.649 369.908 162.36 370.734 161.798 371.362C161.237 371.99 160.449 372.369 159.608 372.416L64.2984 377.72L64.1208 377.707Z" fill="white" stroke="#263238" stroke-linecap="round" stroke-linejoin="round"/>
<path d="M114.402 368.559L63.9558 371.363C63.1146 371.385 62.3165 371.74 61.7371 372.351C61.1577 372.961 60.8445 373.776 60.8664 374.618C60.8883 375.459 61.2434 376.257 61.8537 376.836C62.464 377.416 63.2795 377.729 64.1208 377.707H64.2984L115.328 374.865C115.482 372.721 115.166 370.569 114.402 368.559Z" fill="white" stroke="#263238" stroke-linecap="round" stroke-linejoin="round"/>
<path d="M69.1323 307.418L82.7715 308.687C82.8024 306.541 83.1094 304.409 83.685 302.343L69.7287 301.074C68.8874 300.997 68.0499 301.257 67.4003 301.797C66.7508 302.337 66.3423 303.113 66.265 303.954C66.1876 304.795 66.4475 305.633 66.9876 306.282C67.5278 306.932 68.3038 307.34 69.145 307.418H69.1323Z" fill="white" stroke="#263238" stroke-linecap="round" stroke-linejoin="round"/>
<path d="M167.385 380.168C167.385 379.648 167.385 379.128 167.322 378.608V378.43C167.212 376.697 166.996 374.973 166.674 373.266C166.668 373.334 166.668 373.402 166.674 373.469C166.674 378.938 162.145 385.358 162.145 385.358C153.035 395.368 139.358 402.359 127.774 407.434C126.899 407.815 127.647 418.853 127.647 420.122C127.647 421.39 128.536 432.479 127.774 432.809C140.563 427.315 153.073 420.122 162.614 409.819C164.061 408.246 166.421 406.114 167.207 404.059C167.766 402.575 167.41 400.443 167.423 398.87C167.474 392.602 167.512 386.373 167.385 380.168Z" fill="#8764EB" stroke="#263238" stroke-linecap="round" stroke-linejoin="round"/>
<path d="M175.378 50.5577C175.036 48.8854 174.587 47.2369 174.033 45.6222C173.183 43.1989 171.128 39.5576 170.773 38.5806C171.701 45.4633 170.071 52.4474 166.192 58.2083C152.686 69.6824 138.22 79.9759 122.953 88.9757C111.027 95.9919 98.6817 102.285 87.098 109.847C77.0494 116.406 66.7978 124.26 61.266 135.222C55.2141 147.199 56.9015 162.45 57.2821 175.353C57.3393 178.242 58.0051 181.087 59.236 183.701C58.995 182.635 58.7539 181.532 58.5382 180.453C57.2695 173.932 60.7712 161.612 60.7712 161.612C62.7421 157.542 65.3077 153.788 68.3838 150.472C76.7829 141.198 87.7831 134.524 98.5041 128.282C110.989 120.999 123.511 113.755 135.704 105.99C141.794 102.107 147.808 98.1108 153.682 93.9239C159.201 89.9907 165.292 86.0956 170.062 81.2363C178.334 72.799 177.598 61.4183 175.378 50.5577Z" fill="#8764EB" stroke="#263238" stroke-linecap="round" stroke-linejoin="round"/>
<path d="M198.99 473.384H192.646V528.575H198.99V473.384Z" fill="white" stroke="#263238" stroke-linecap="round" stroke-linejoin="round"/>
<path d="M202.796 457.525H217.387V514.01C217.387 515.534 216.781 516.996 215.703 518.074C214.625 519.152 213.164 519.757 211.639 519.757H208.531C207.009 519.754 205.55 519.147 204.475 518.069C203.4 516.992 202.796 515.532 202.796 514.01V457.525Z" fill="white" stroke="#263238" stroke-linecap="round" stroke-linejoin="round"/>
<path d="M204.344 465.949V511.472C204.344 512.226 204.493 512.973 204.782 513.67C205.071 514.366 205.494 514.999 206.028 515.532C206.562 516.065 207.196 516.487 207.893 516.774C208.59 517.062 209.337 517.209 210.091 517.207C210.845 517.209 211.593 517.062 212.29 516.774C212.987 516.487 213.621 516.065 214.155 515.532C214.688 514.999 215.112 514.366 215.401 513.67C215.69 512.973 215.839 512.226 215.839 511.472V465.949H204.344Z" fill="#8764EB"/>
<path d="M217.031 459.643H203.075C202.527 459.643 202.001 459.426 201.613 459.038C201.225 458.65 201.007 458.124 201.007 457.575C201.007 457.027 201.225 456.501 201.613 456.113C202.001 455.725 202.527 455.507 203.075 455.507H217.031C217.58 455.507 218.106 455.725 218.494 456.113C218.882 456.501 219.099 457.027 219.099 457.575C219.099 458.124 218.882 458.65 218.494 459.038C218.106 459.426 217.58 459.643 217.031 459.643Z" fill="white" stroke="#263238" stroke-linecap="round" stroke-linejoin="round"/>
<path d="M225.19 457.525H239.78V514.01C239.78 515.534 239.175 516.996 238.097 518.074C237.019 519.152 235.557 519.757 234.033 519.757H230.924C229.4 519.757 227.938 519.152 226.86 518.074C225.782 516.996 225.177 515.534 225.177 514.01V457.525H225.19Z" fill="white" stroke="#263238" stroke-linecap="round" stroke-linejoin="round"/>
<path d="M226.75 465.949V511.472C226.75 512.993 227.354 514.452 228.43 515.527C229.505 516.603 230.964 517.207 232.485 517.207C233.239 517.209 233.986 517.062 234.683 516.774C235.381 516.487 236.014 516.065 236.548 515.532C237.082 514.999 237.506 514.366 237.795 513.67C238.084 512.973 238.232 512.226 238.232 511.472V465.949H226.75Z" fill="#8764EB"/>
<path d="M239.425 459.643H225.469C225.198 459.643 224.929 459.59 224.679 459.486C224.429 459.382 224.202 459.229 224.011 459.037C223.82 458.845 223.669 458.617 223.566 458.366C223.464 458.115 223.412 457.846 223.413 457.575C223.412 457.304 223.464 457.036 223.566 456.785C223.669 456.534 223.82 456.306 224.011 456.114C224.202 455.922 224.429 455.769 224.679 455.665C224.929 455.561 225.198 455.507 225.469 455.507H239.425C239.974 455.507 240.5 455.725 240.887 456.113C241.275 456.501 241.493 457.027 241.493 457.575C241.493 458.124 241.275 458.65 240.887 459.038C240.5 459.426 239.974 459.643 239.425 459.643Z" fill="white" stroke="#263238" stroke-linecap="round" stroke-linejoin="round"/>
<path d="M247.583 457.525H262.174V514.01C262.174 515.534 261.568 516.996 260.49 518.074C259.413 519.152 257.951 519.757 256.426 519.757H253.318C251.796 519.754 250.337 519.147 249.262 518.069C248.187 516.992 247.583 515.532 247.583 514.01V457.525Z" fill="white" stroke="#263238" stroke-linecap="round" stroke-linejoin="round"/>
<path d="M249.144 465.949V511.472C249.144 512.993 249.748 514.452 250.823 515.527C251.899 516.603 253.358 517.207 254.879 517.207C255.633 517.209 256.38 517.062 257.077 516.774C257.774 516.487 258.408 516.065 258.942 515.532C259.476 514.999 259.899 514.366 260.188 513.67C260.477 512.973 260.626 512.226 260.626 511.472V465.949H249.144Z" fill="#8764EB"/>
<path d="M261.819 459.643H247.862C247.314 459.643 246.788 459.426 246.4 459.038C246.012 458.65 245.794 458.124 245.794 457.575C245.794 457.027 246.012 456.501 246.4 456.113C246.788 455.725 247.314 455.507 247.862 455.507H261.819C262.367 455.507 262.893 455.725 263.281 456.113C263.669 456.501 263.887 457.027 263.887 457.575C263.887 458.124 263.669 458.65 263.281 459.038C262.893 459.426 262.367 459.643 261.819 459.643Z" fill="white" stroke="#263238" stroke-linecap="round" stroke-linejoin="round"/>
<path d="M266.868 467.675H187.571V477.19H266.868V467.675Z" fill="white" stroke="#263238" stroke-linecap="round" stroke-linejoin="round"/>
<path d="M266.868 524.134H187.571V533.65H266.868V524.134Z" fill="white" stroke="#263238" stroke-linecap="round" stroke-linejoin="round"/>
<path d="M356.887 465.099L356.798 436.945H327.35V465.695L307.875 525.987C307.6 526.864 307.536 527.793 307.686 528.699C307.837 529.605 308.198 530.463 308.742 531.204C309.285 531.945 309.995 532.548 310.814 532.964C311.633 533.38 312.538 533.598 313.457 533.599H370.551C371.47 533.598 372.375 533.38 373.194 532.964C374.013 532.548 374.723 531.945 375.267 531.204C375.81 530.463 376.171 529.605 376.322 528.699C376.473 527.793 376.408 526.864 376.134 525.987L356.887 465.099Z" fill="white" stroke="#263238" stroke-linecap="round" stroke-linejoin="round"/>
<path d="M356.075 476.48H328.225L313.724 522.701C313.477 523.44 313.407 524.228 313.521 524.999C313.634 525.771 313.928 526.505 314.377 527.142C314.827 527.779 315.42 528.302 316.108 528.667C316.797 529.033 317.562 529.232 318.342 529.248H365.616C366.395 529.231 367.161 529.032 367.849 528.667C368.538 528.301 369.132 527.779 369.582 527.142C370.033 526.505 370.327 525.772 370.443 525C370.558 524.229 370.491 523.441 370.247 522.701L356.075 476.48Z" fill="#8764EB"/>
<path d="M358.942 431.718H324.318C323.007 431.718 321.945 432.78 321.945 434.091V436.311C321.945 437.621 323.007 438.684 324.318 438.684H358.942C360.252 438.684 361.315 437.621 361.315 436.311V434.091C361.315 432.78 360.252 431.718 358.942 431.718Z" fill="white" stroke="#263238" stroke-linecap="round" stroke-linejoin="round"/>
<path d="M44.5438 533.65H592.064" stroke="#263238" stroke-linecap="round" stroke-linejoin="round"/>
<path d="M1 533.65H34.5967" stroke="#263238" stroke-linecap="round" stroke-linejoin="round"/>
</svg>
