<svg width="861" height="229" viewBox="0 0 861 229" fill="none" xmlns="http://www.w3.org/2000/svg">
<path d="M45.3376 88.7686C44.3392 88.7774 43.3648 88.4539 42.5621 87.8461C41.7597 87.2387 41.1726 86.3802 40.89 85.4011C40.6073 84.422 40.6441 83.3754 40.9952 82.4197C41.3466 81.4638 41.9928 80.6511 42.8361 80.1042L88.4291 50.1974C88.9384 49.8547 89.5092 49.6178 90.1082 49.5007C90.7071 49.3832 91.3231 49.3879 91.9203 49.5139C92.5178 49.6398 93.0848 49.885 93.5896 50.2349C94.0943 50.5852 94.5268 51.0335 94.8619 51.5543C95.1973 52.0752 95.4287 52.6585 95.5435 53.271C95.6583 53.8834 95.6539 54.5128 95.5304 55.1235C95.4072 55.7342 95.1675 56.314 94.8251 56.8301C94.4827 57.346 94.0441 57.7881 93.5345 58.1307L47.8394 87.9856C47.0973 88.4888 46.2282 88.761 45.3376 88.7686Z" fill="white"/>
<path d="M67.6491 99.416C66.6507 99.4251 65.6763 99.1012 64.8736 98.4938C64.0712 97.8861 63.4841 97.0276 63.2015 96.0485C62.9185 95.0694 62.9556 94.0227 63.3067 93.0671C63.6581 92.1114 64.304 91.2985 65.1476 90.7518L91.9009 73.1626C92.4103 72.82 92.9808 72.583 93.58 72.4659C94.1789 72.3485 94.795 72.3532 95.3922 72.4791C95.9896 72.6051 96.5567 72.8502 97.0614 73.2002C97.5661 73.5504 97.9986 73.9987 98.3338 74.5196C98.6692 75.0404 98.9005 75.6237 99.0153 76.2362C99.1301 76.8486 99.1258 77.4781 99.0023 78.0887C98.8791 78.6994 98.6393 79.2795 98.2969 79.7954C97.9546 80.3112 97.516 80.7533 97.0063 81.096L70.1509 98.842C69.387 99.2721 68.5194 99.4712 67.6491 99.416Z" fill="white"/>
<path d="M100.682 178.333C99.6838 178.342 98.7095 178.018 97.9067 177.411C97.1043 176.803 96.5172 175.945 96.2346 174.965C95.9519 173.986 95.9888 172.94 96.3401 171.984C96.6912 171.028 97.3374 170.215 98.1807 169.669L143.774 139.762C144.803 139.07 146.059 138.824 147.265 139.078C148.471 139.333 149.53 140.067 150.207 141.119C150.884 142.171 151.124 143.455 150.875 144.688C150.626 145.921 149.908 147.003 148.879 147.695L103.133 177.602C102.4 178.078 101.55 178.331 100.682 178.333Z" fill="white"/>
<path d="M96.5978 155.942C95.5991 155.951 94.6248 155.627 93.8223 155.02C93.0199 154.412 92.4329 153.554 92.1502 152.575C91.8673 151.595 91.9044 150.549 92.2554 149.593C92.6065 148.637 93.2527 147.825 94.096 147.278L120.9 129.689C121.923 128.996 123.172 128.748 124.374 128.997C125.576 129.247 126.631 129.974 127.308 131.019C127.985 132.065 128.228 133.342 127.984 134.57C127.74 135.799 127.029 136.878 126.006 137.57L99.0486 155.211C98.3166 155.689 97.4664 155.943 96.5978 155.942Z" fill="white"/>
<path d="M110.077 50.2496C111.747 52.9923 112.696 56.1305 112.83 59.3588C112.964 62.5871 112.28 65.7961 110.842 68.6738L96.1383 98.842H107.626L120.032 73.4235C122.238 68.9621 123.289 63.9981 123.086 59.0042C122.883 54.0099 121.433 49.1522 118.874 44.8931C116.315 40.634 112.732 37.1156 108.466 34.6726C104.2 32.23 99.3939 30.944 94.5045 30.9379H67.7001L62.5947 41.3765H94.3514C97.4951 41.3618 100.59 42.1691 103.343 43.7222C106.095 45.2753 108.413 47.5222 110.077 50.2496Z" fill="white"/>
<path d="M168.025 129.01C166.149 123.261 162.55 118.261 157.74 114.72C152.928 111.179 147.149 109.276 141.221 109.281H47.533C45.0941 109.296 42.6772 108.807 40.4282 107.843C38.1788 106.879 36.144 105.459 34.4458 103.669C32.7476 101.879 31.4213 99.7568 30.5467 97.4292C29.6723 95.1016 29.2676 92.6173 29.3572 90.1256C29.4764 87.3162 30.2089 84.57 31.5016 82.0877L53.2513 37.7753C53.8606 36.5363 53.9636 35.1007 53.5377 33.7842C53.1115 32.4678 52.1914 31.378 50.9793 30.7553C49.7676 30.1323 48.3633 30.0269 47.0753 30.4625C45.7875 30.8982 44.7219 31.8389 44.1125 33.0778L22.4647 77.1292C20.652 80.6085 19.5376 84.4232 19.1869 88.349C18.8362 92.2749 19.2563 96.2325 20.4224 99.9902C22.3067 105.764 25.9285 110.782 30.7702 114.326C35.6118 117.869 41.4254 119.757 47.3799 119.719H86.1823L68.6191 155.576C65.6691 161.586 64.82 168.446 66.2132 175.017C67.6065 181.588 71.1583 187.473 76.2777 191.694C81.2749 195.86 87.5466 198.096 93.994 198.01H120.798L125.904 187.571H94.096C90.9523 187.601 87.8545 186.801 85.1016 185.248C82.3487 183.696 80.0339 181.444 78.3812 178.71C76.7282 175.976 75.7932 172.853 75.6663 169.641C75.5393 166.43 76.2246 163.24 77.6561 160.378L97.5678 119.719H141.17C145.134 119.645 149.005 120.952 152.147 123.425C155.49 126.075 157.828 129.831 158.76 134.049C159.691 138.268 159.158 142.686 157.252 146.547L136.217 189.45C135.608 190.689 135.505 192.125 135.931 193.441C136.357 194.758 137.277 195.847 138.489 196.47C139.701 197.093 141.105 197.198 142.393 196.763C143.681 196.327 144.747 195.387 145.356 194.148L166.085 151.871C167.881 148.384 168.978 144.566 169.311 140.64C169.644 136.715 169.207 132.761 168.025 129.01Z" fill="white"/>
<path d="M265.352 103.215H235.394L230.162 120.372H206.806L240.066 28.5333H260.619L294.126 120.372H270.646L265.352 103.215ZM240.626 86.1216H260.121L250.342 54.2683L240.626 86.1216ZM347.566 95.9613C347.566 92.7236 346.423 90.2005 344.139 88.3922C341.898 86.584 337.932 84.713 332.245 82.7785C326.557 80.8443 321.907 78.973 318.292 77.1648C306.542 71.3197 300.666 63.288 300.666 53.0699C300.666 47.9817 302.121 43.5032 305.026 39.6346C307.974 35.724 312.126 32.6962 317.483 30.5515C322.84 28.3651 328.861 27.2717 335.546 27.2717C342.063 27.2717 347.899 28.4491 353.048 30.804C358.237 33.1589 362.264 36.5229 365.131 40.8962C367.995 45.2272 369.427 50.1895 369.427 55.7821H347.629C347.629 52.0397 346.487 49.1381 344.203 47.0777C341.959 45.017 338.909 43.9868 335.048 43.9868C331.143 43.9868 328.05 44.8699 325.768 46.6361C323.524 48.3601 322.402 50.5679 322.402 53.2589C322.402 55.6138 323.649 57.7585 326.139 59.6927C328.632 61.5851 333.013 63.5613 339.283 65.622C345.551 67.6404 350.699 69.8271 354.729 72.1817C364.528 77.9008 369.427 85.7852 369.427 95.8353C369.427 103.867 366.438 110.175 360.457 114.758C354.48 119.342 346.279 121.633 335.857 121.633C328.508 121.633 321.843 120.309 315.865 117.66C309.925 114.968 305.44 111.31 302.411 106.684C299.422 102.017 297.926 96.6553 297.926 90.6H319.851C319.851 95.52 321.095 99.1573 323.588 101.512C326.119 103.825 330.209 104.981 335.857 104.981C339.469 104.981 342.313 104.203 344.388 102.647C346.508 101.049 347.566 98.8208 347.566 95.9613ZM380.637 120.372V28.5333H409.848C417.863 28.5333 425.067 30.3836 431.462 34.084C437.855 37.7424 442.838 42.9354 446.41 49.6636C450.022 56.3499 451.848 63.8558 451.889 72.1817V76.4079C451.889 84.8181 450.126 92.366 446.595 99.0522C443.108 105.696 438.168 110.91 431.773 114.695C425.421 118.437 418.318 120.33 410.471 120.372H380.637ZM402.499 45.6268V103.341H410.097C416.367 103.341 421.186 101.091 424.548 96.5922C427.911 92.0507 429.593 85.3225 429.593 76.4079V72.4342C429.593 63.5613 427.911 56.8754 424.548 52.3758C421.186 47.8766 416.286 45.6268 409.848 45.6268H402.499ZM509.874 95.9613C509.874 92.7236 508.732 90.2005 506.451 88.3922C504.207 86.584 500.241 84.713 494.553 82.7785C488.865 80.8443 484.215 78.973 480.603 77.1648C468.851 71.3197 462.977 63.288 462.977 53.0699C462.977 47.9817 464.43 43.5032 467.337 39.6346C470.283 35.724 474.437 32.6962 479.792 30.5515C485.149 28.3651 491.17 27.2717 497.855 27.2717C504.375 27.2717 510.208 28.4491 515.356 30.804C520.545 33.1589 524.575 36.5229 527.439 40.8962C530.303 45.2272 531.736 50.1895 531.736 55.7821H509.938C509.938 52.0397 508.796 49.1381 506.511 47.0777C504.271 45.017 501.218 43.9868 497.356 43.9868C493.454 43.9868 490.361 44.8699 488.077 46.6361C485.833 48.3601 484.714 50.5679 484.714 53.2589C484.714 55.6138 485.958 57.7585 488.451 59.6927C490.941 61.5851 495.321 63.5613 501.592 65.622C507.862 67.6404 513.011 69.8271 517.038 72.1817C526.836 77.9008 531.736 85.7852 531.736 95.8353C531.736 103.867 528.747 110.175 522.769 114.758C516.788 119.342 508.587 121.633 498.165 121.633C490.816 121.633 484.152 120.309 478.174 117.66C472.237 114.968 467.752 111.31 464.72 106.684C461.731 102.017 460.235 96.6553 460.235 90.6H482.16C482.16 95.52 483.407 99.1573 485.897 101.512C488.43 103.825 492.518 104.981 498.165 104.981C501.777 104.981 504.624 104.203 506.7 102.647C508.816 101.049 509.874 98.8208 509.874 95.9613ZM594.455 103.215H564.497L559.264 120.372H535.91L569.167 28.5333H589.721L623.231 120.372H599.749L594.455 103.215ZM569.73 86.1216H589.223L579.444 54.2683L569.73 86.1216Z" fill="white"/>
<path d="M235.462 201.786H217.796L214.06 211.385H207.639L223.912 171.303H229.551L245.586 211.385H239.199L235.462 201.786ZM219.835 196.59H233.458L226.697 179.078L219.835 196.59ZM257.307 206.19H277.147V211.385H251.022V171.303H257.307V206.19ZM289.989 211.385H283.669V171.303H289.989V211.385ZM331.705 206.224C330.212 208.128 328.14 209.561 325.49 210.524C322.863 211.465 319.84 211.935 316.419 211.935C311.03 211.935 306.702 210.226 303.44 206.809C300.179 203.391 298.526 198.792 298.48 193.012V189.916C298.48 183.906 299.987 179.216 303 175.844C306.035 172.45 310.293 170.752 315.772 170.752C320.304 170.752 323.939 171.83 326.678 173.986C329.418 176.142 331.094 179.296 331.705 183.448H325.455C324.594 178.471 321.391 175.982 315.842 175.982C312.242 175.982 309.499 177.163 307.621 179.525C305.739 181.888 304.8 185.351 304.8 189.916V192.806C304.8 197.164 305.843 200.581 307.925 203.059C310.032 205.513 312.897 206.74 316.52 206.74C320.643 206.74 323.62 205.891 325.455 204.194V196.006H315.909V191.051H331.705V206.224ZM373.526 211.385H367.276L346.722 181.246V211.385H340.437V171.303H346.722L367.276 201.476V171.303H373.526V211.385ZM391.123 171.303L404.409 202.646L417.623 171.303H425.809V211.385H419.559V197.588L420.206 179.25L406.685 211.385H402.064L388.578 179.388L389.221 197.588V211.385H382.971V171.303H391.123ZM459.58 193.288H441.505V206.19H462.534V211.385H435.22V171.303H462.331V176.567H441.505V188.058H459.58V193.288ZM502.215 211.385H495.965L475.411 181.246V211.385H469.126V171.303H475.411L495.965 201.476V171.303H502.215V211.385ZM541.656 176.567H528.1V211.385H521.818V176.567H508.329V171.303H541.656V176.567ZM564.996 211.385V171.303H577.261C580.929 171.303 584.178 172.071 587.011 173.608C589.863 175.122 592.084 177.289 593.67 180.111C595.255 182.932 596.082 186.166 596.148 189.813V192.462C596.148 198.242 594.383 202.841 590.849 206.258C587.338 209.676 582.604 211.385 576.65 211.385H564.996ZM571.281 176.567V206.19H576.853C581.065 206.19 584.292 204.997 586.535 202.611C588.776 200.226 589.898 196.831 589.898 192.428V190.226C589.898 185.822 588.823 182.45 586.672 180.111C584.541 177.748 581.404 176.567 577.261 176.567H571.281ZM628.49 193.288H610.417V206.19H631.446V211.385H604.132V171.303H631.244V176.567H610.417V188.058H628.49V193.288ZM668.035 176.567H654.479V211.385H648.194V176.567H634.708V171.303H668.035V176.567ZM698.474 193.288H680.402V206.19H701.431V211.385H674.117V171.303H701.225V176.567H680.402V188.058H698.474V193.288ZM739.75 198.414C739.298 202.703 737.645 206.029 734.79 208.392C731.937 210.754 728.142 211.935 723.411 211.935C718.338 211.935 714.259 210.249 711.18 206.878C708.122 203.483 706.594 198.816 706.594 192.875V189.641C706.594 185.879 707.284 182.576 708.667 179.732C710.07 176.865 712.073 174.652 714.679 173.092C717.306 171.532 720.341 170.752 723.782 170.752C728.403 170.752 732.108 171.968 734.894 174.399C737.7 176.808 739.321 180.156 739.75 184.445H733.465C733.059 181.464 732.05 179.308 730.441 177.977C728.855 176.647 726.638 175.982 723.782 175.982C720.318 175.982 717.633 177.152 715.732 179.491C713.853 181.808 712.902 185.134 712.879 189.469V193.115C712.879 197.451 713.772 200.811 715.564 203.196C717.375 205.559 719.99 206.74 723.411 206.74C726.467 206.74 728.789 206.109 730.375 204.848C731.983 203.563 733.013 201.419 733.465 198.414H739.75ZM777.019 176.567H763.464V211.385H757.179V176.567H743.692V171.303H777.019V176.567ZM816.257 192.531C816.257 198.517 814.695 203.254 811.569 206.74C808.444 210.204 804.252 211.935 798.999 211.935C793.813 211.935 789.621 210.18 786.429 206.671C783.258 203.162 781.672 198.391 781.672 192.359V190.226C781.672 184.308 783.246 179.583 786.395 176.051C789.566 172.518 793.744 170.752 798.93 170.752C804.209 170.752 808.398 172.495 811.5 175.982C814.625 179.468 816.211 184.136 816.257 189.985V192.531ZM810.039 190.157C810.039 185.615 809.065 182.141 807.12 179.732C805.171 177.324 802.441 176.12 798.93 176.12C795.532 176.12 792.839 177.346 790.845 179.801C788.876 182.255 787.891 185.741 787.891 190.26V192.531C787.891 197.003 788.888 200.478 790.879 202.955C792.874 205.41 795.579 206.637 798.999 206.637C802.533 206.637 805.25 205.433 807.151 203.024C809.076 200.593 810.039 197.095 810.039 192.531V190.157ZM840.038 195.937H830.561V211.385H824.276V171.303H838.748C843.571 171.303 847.285 172.369 849.888 174.502C852.518 176.636 853.831 179.652 853.831 183.551C853.831 188.781 851.17 192.416 845.847 194.457L855.631 211.041V211.385H848.906L840.038 195.937ZM830.561 190.742H838.916C841.565 190.742 843.661 190.122 845.201 188.884C846.763 187.622 847.546 185.925 847.546 183.792C847.546 181.498 846.786 179.72 845.27 178.459C843.751 177.198 841.565 176.567 838.713 176.567H830.561V190.742Z" fill="white"/>
</svg>
